<svg xmlns="http://www.w3.org/2000/svg" viewBox="185.60000610351562 385.79998779296875 417.6000061035156 351.4000244140625" width="417.6000061035156px" height="351.4000244140625px" class="svg-logo" data-name="full-color-logomark">null<path class="st0" d="M394.4,411.8c-24.7,0-48-1.1-65.6-3-27.2-3-29.5-6.8-29.5-10s2.3-7,29.5-10c17.5-1.9,40.8-3,65.6-3s48,1.1,65.6,3c27.2,3,29.5,6.8,29.5,10s-2.3,7-29.5,10c-17.5,1.9-40.8,3-65.6,3ZM306,398.8c7.3,3.3,39.1,7.4,88.4,7.4s81.1-4.1,88.4-7.4c-7.3-3.3-39.1-7.4-88.4-7.4s-81.1,4.1-88.4,7.4Z" style="fill: rgb(170, 33, 62);" stroke-opacity="0"/><path class="st0" d="M394.4,485c-44.3,0-86-1.9-117.3-5.4-51-5.6-51-12.7-51-15.7s0-10.1,51-15.7c31.4-3.5,73-5.4,117.3-5.4s86,1.9,117.3,5.4c51,5.6,51,12.7,51,15.7s0,10.1-51,15.7c-31.4,3.5-73,5.4-117.3,5.4ZM231.8,463.9c4.4,6.4,63.9,15.5,162.6,15.5s158.2-9.1,162.6-15.5c-4.4-6.4-63.9-15.5-162.6-15.5s-158.2,9.1-162.6,15.5Z" style="fill: rgb(170, 33, 62);" stroke-opacity="0"/><path class="st0" d="M394.4,550.1c-55.1,0-106.9-1.9-145.9-5.4-62.9-5.6-62.9-12.5-62.9-15.8s0-10.2,62.9-15.8c39-3.5,90.8-5.4,145.9-5.4s106.9,1.9,145.9,5.4c62.9,5.6,62.9,12.5,62.9,15.8s0,10.2-62.9,15.8c-39,3.5-90.8,5.4-145.9,5.4ZM191.6,529c7.3,6.7,79.9,15.5,202.8,15.5s195.5-8.9,202.8-15.5c-7.3-6.7-79.9-15.5-202.8-15.5s-195.5,8.9-202.8,15.5Z" style="fill: rgb(170, 33, 62);" stroke-opacity="0"/><path class="st0" d="M394.4,737.2c-24.7,0-48-1.1-65.6-3-27.2-3-29.5-6.8-29.5-10s2.3-7,29.5-10c17.5-1.9,40.8-3,65.6-3s48,1.1,65.6,3c27.2,3,29.5,6.8,29.5,10s-2.3,7-29.5,10c-17.5,1.9-40.8,3-65.6,3ZM306,724.2c7.3,3.3,39.1,7.4,88.4,7.4s81.1-4.1,88.4-7.4c-7.3-3.3-39.1-7.4-88.4-7.4s-81.1,4.1-88.4,7.4Z" style="fill: rgb(170, 33, 62);" stroke-opacity="0"/><path class="st0" d="M394.4,680.3c-44.3,0-86-1.9-117.3-5.4-51-5.6-51-12.7-51-15.7s0-10.1,51-15.7c31.4-3.5,73-5.4,117.3-5.4s86,1.9,117.3,5.4c51,5.6,51,12.7,51,15.7s0,10.1-51,15.7c-31.4,3.5-73,5.4-117.3,5.4ZM231.8,659.1c4.4,6.4,63.9,15.5,162.6,15.5s158.2-9.1,162.6-15.5c-4.4-6.4-63.9-15.5-162.6-15.5s-158.2,9.1-162.6,15.5Z" style="fill: rgb(170, 33, 62);" stroke-opacity="0"/><path class="st0" d="M394.4,615.2c-55.1,0-106.9-1.9-145.9-5.4-62.9-5.6-62.9-12.5-62.9-15.8s0-10.2,62.9-15.8c39-3.5,90.8-5.4,145.9-5.4s106.9,1.9,145.9,5.4c62.9,5.6,62.9,12.5,62.9,15.8s0,10.2-62.9,15.8c-39,3.5-90.8,5.4-145.9,5.4ZM191.6,594.1c7.3,6.7,79.9,15.5,202.8,15.5s195.5-8.9,202.8-15.5c-7.3-6.7-79.9-15.5-202.8-15.5s-195.5,8.9-202.8,15.5Z" style="fill: rgb(170, 33, 62);" stroke-opacity="0"/><path class="st0" d="M394.4,411.8c-24.7,0-48-1.1-65.6-3-27.2-3-29.5-6.8-29.5-10s2.3-7,29.5-10c17.5-1.9,40.8-3,65.6-3s48,1.1,65.6,3c27.2,3,29.5,6.8,29.5,10s-2.3,7-29.5,10c-17.5,1.9-40.8,3-65.6,3ZM306,398.8c7.3,3.3,39.1,7.4,88.4,7.4s81.1-4.1,88.4-7.4c-7.3-3.3-39.1-7.4-88.4-7.4s-81.1,4.1-88.4,7.4Z" style="fill: rgb(170, 33, 62);" stroke-opacity="0"/><path class="st0" d="M394.4,485c-44.3,0-86-1.9-117.3-5.4-51-5.6-51-12.7-51-15.7s0-10.1,51-15.7c31.4-3.5,73-5.4,117.3-5.4s86,1.9,117.3,5.4c51,5.6,51,12.7,51,15.7s0,10.1-51,15.7c-31.4,3.5-73,5.4-117.3,5.4ZM231.8,463.9c4.4,6.4,63.9,15.5,162.6,15.5s158.2-9.1,162.6-15.5c-4.4-6.4-63.9-15.5-162.6-15.5s-158.2,9.1-162.6,15.5Z" style="fill: rgb(170, 33, 62);" stroke-opacity="0"/><path class="st0" d="M394.4,550.1c-55.1,0-106.9-1.9-145.9-5.4-62.9-5.6-62.9-12.5-62.9-15.8s0-10.2,62.9-15.8c39-3.5,90.8-5.4,145.9-5.4s106.9,1.9,145.9,5.4c62.9,5.6,62.9,12.5,62.9,15.8s0,10.2-62.9,15.8c-39,3.5-90.8,5.4-145.9,5.4ZM191.6,529c7.3,6.7,79.9,15.5,202.8,15.5s195.5-8.9,202.8-15.5c-7.3-6.7-79.9-15.5-202.8-15.5s-195.5,8.9-202.8,15.5Z" style="fill: rgb(170, 33, 62);" stroke-opacity="0"/><path class="st0" d="M394.4,737.2c-24.7,0-48-1.1-65.6-3-27.2-3-29.5-6.8-29.5-10s2.3-7,29.5-10c17.5-1.9,40.8-3,65.6-3s48,1.1,65.6,3c27.2,3,29.5,6.8,29.5,10s-2.3,7-29.5,10c-17.5,1.9-40.8,3-65.6,3ZM306,724.2c7.3,3.3,39.1,7.4,88.4,7.4s81.1-4.1,88.4-7.4c-7.3-3.3-39.1-7.4-88.4-7.4s-81.1,4.1-88.4,7.4Z" style="fill: rgb(170, 33, 62);" stroke-opacity="0"/><path class="st0" d="M394.4,680.3c-44.3,0-86-1.9-117.3-5.4-51-5.6-51-12.7-51-15.7s0-10.1,51-15.7c31.4-3.5,73-5.4,117.3-5.4s86,1.9,117.3,5.4c51,5.6,51,12.7,51,15.7s0,10.1-51,15.7c-31.4,3.5-73,5.4-117.3,5.4ZM231.8,659.1c4.4,6.4,63.9,15.5,162.6,15.5s158.2-9.1,162.6-15.5c-4.4-6.4-63.9-15.5-162.6-15.5s-158.2,9.1-162.6,15.5Z" style="fill: rgb(170, 33, 62);" stroke-opacity="0"/><path class="st0" d="M394.4,615.2c-55.1,0-106.9-1.9-145.9-5.4-62.9-5.6-62.9-12.5-62.9-15.8s0-10.2,62.9-15.8c39-3.5,90.8-5.4,145.9-5.4s106.9,1.9,145.9,5.4c62.9,5.6,62.9,12.5,62.9,15.8s0,10.2-62.9,15.8c-39,3.5-90.8,5.4-145.9,5.4ZM191.6,594.1c7.3,6.7,79.9,15.5,202.8,15.5s195.5-8.9,202.8-15.5c-7.3-6.7-79.9-15.5-202.8-15.5s-195.5,8.9-202.8,15.5Z" style="fill: rgb(170, 33, 62);" stroke-opacity="0"/></svg>